<?xml version="1.0" encoding="utf-8"?>
<!-- Generator: Adobe Illustrator 16.0.0, SVG Export Plug-In . SVG Version: 6.00 Build 0)  -->
<!DOCTYPE svg PUBLIC "-//W3C//DTD SVG 1.1//EN" "http://www.w3.org/Graphics/SVG/1.1/DTD/svg11.dtd">
<svg version="1.1" id="Layer_1" xmlns="http://www.w3.org/2000/svg" xmlns:xlink="http://www.w3.org/1999/xlink" x="0px" y="0px"
	 width="250.333px" height="152.789px" viewBox="0 0 250.333 152.789" enable-background="new 0 0 250.333 152.789"
	 xml:space="preserve">
<g>
	<polygon fill="#FFCD32" points="104.517,97.059 125.166,101.419 145.814,97.059 125.167,0 	"/>
	<polygon fill="#F49B00" points="188.432,88.914 127.186,101.846 167.245,110.305 	"/>
	<polygon fill="#E84E1B" points="61.9,88.914 125.167,152.789 166.545,111.011 	"/>
</g>
<g>
	<g>
		
			<linearGradient id="SVGID_1_" gradientUnits="userSpaceOnUse" x1="80.7573" y1="747.9062" x2="58.9022" y2="710.0524" gradientTransform="matrix(1 0 0 1 -45.0703 -639.1416)">
			<stop  offset="0" style="stop-color:#009FE3"/>
			<stop  offset="0.0376" style="stop-color:#0893D8"/>
			<stop  offset="0.1154" style="stop-color:#1480C6"/>
			<stop  offset="0.1955" style="stop-color:#1B75BB"/>
			<stop  offset="0.2809" style="stop-color:#1D71B8"/>
			<stop  offset="0.6685" style="stop-color:#36A9E1"/>
			<stop  offset="0.8876" style="stop-color:#1D71B8"/>
			<stop  offset="1" style="stop-color:#2D2E83"/>
		</linearGradient>
		<polygon fill="url(#SVGID_1_)" points="11.792,106.443 5.543,100.193 5.543,78.337 11.792,72.088 39.706,72.088 42.589,77.854 
			13.397,77.854 11.307,79.943 11.307,98.587 13.397,100.677 42.589,100.677 39.706,106.443 		"/>
		<path fill="#FFFFFF" d="M39.397,72.588l2.383,4.766H13.19l-2.383,2.383v19.061l2.383,2.383h28.59l-2.383,4.766H11.999
			l-5.956-5.956V78.544l5.956-5.957L39.397,72.588 M40.016,71.588h-0.618H11.999h-0.414l-0.293,0.293l-5.956,5.957L5.043,78.13
			v0.414v21.44v0.414l0.293,0.293l5.956,5.957l0.293,0.293h0.414h27.398h0.618l0.276-0.553l2.383-4.766l0.724-1.447H41.78H13.604
			l-1.797-1.797V80.15l1.797-1.797H41.78h1.618l-0.724-1.447l-2.383-4.765L40.016,71.588L40.016,71.588z"/>
	</g>
	<g>
		
			<linearGradient id="SVGID_2_" gradientUnits="userSpaceOnUse" x1="119.9517" y1="746.5371" x2="99.0157" y2="710.2748" gradientTransform="matrix(1 0 0 1 -45.0703 -639.1416)">
			<stop  offset="0" style="stop-color:#009FE3"/>
			<stop  offset="0.0376" style="stop-color:#0893D8"/>
			<stop  offset="0.1154" style="stop-color:#1480C6"/>
			<stop  offset="0.1955" style="stop-color:#1B75BB"/>
			<stop  offset="0.2809" style="stop-color:#1D71B8"/>
			<stop  offset="0.6685" style="stop-color:#36A9E1"/>
			<stop  offset="0.8876" style="stop-color:#1D71B8"/>
			<stop  offset="1" style="stop-color:#2D2E83"/>
		</linearGradient>
		<path fill="url(#SVGID_2_)" d="M52.294,106.443l-6.249-6.25V78.337l6.249-6.25h24.239l6.249,6.25v21.854l-6.249,6.25
			L52.294,106.443L52.294,106.443z M74.928,100.677l2.09-2.09V79.943l-2.09-2.09H53.899l-2.089,2.09v18.646l2.089,2.091h21.029
			V100.677z"/>
		<path fill="#FFFFFF" d="M76.326,72.588l5.956,5.957v21.441l-5.956,5.955H52.501l-5.956-5.955V78.544l5.956-5.957L76.326,72.588
			 M53.692,101.177h21.442l2.383-2.383v-19.06l-2.383-2.383H53.692l-2.382,2.383v19.06L53.692,101.177 M76.74,71.588h-0.414H52.501
			h-0.414l-0.293,0.293l-5.956,5.957l-0.293,0.293v0.414v21.441v0.414l0.293,0.293l5.956,5.955l0.293,0.293h0.414h23.825h0.414
			l0.293-0.293l5.956-5.955l0.293-0.293v-0.414V78.544V78.13l-0.293-0.293l-5.956-5.957L76.74,71.588L76.74,71.588z M54.107,78.354
			h20.614l1.797,1.797V98.38l-1.797,1.797H54.107l-1.796-1.797V80.15L54.107,78.354L54.107,78.354z"/>
	</g>
	<g>
		
			<linearGradient id="SVGID_3_" gradientUnits="userSpaceOnUse" x1="158.8345" y1="747.4775" x2="136.3349" y2="708.5073" gradientTransform="matrix(1 0 0 1 -45.0703 -639.1416)">
			<stop  offset="0" style="stop-color:#009FE3"/>
			<stop  offset="0.0376" style="stop-color:#0893D8"/>
			<stop  offset="0.1154" style="stop-color:#1480C6"/>
			<stop  offset="0.1955" style="stop-color:#1B75BB"/>
			<stop  offset="0.2809" style="stop-color:#1D71B8"/>
			<stop  offset="0.6685" style="stop-color:#36A9E1"/>
			<stop  offset="0.8876" style="stop-color:#1D71B8"/>
			<stop  offset="1" style="stop-color:#2D2E83"/>
		</linearGradient>
		<path fill="url(#SVGID_3_)" d="M86.547,106.443V72.088h29.773l6.249,6.25V85.9l-3.01,3.009l3.724,3.725v7.562l-6.248,6.25H86.547
			V106.443z M115.43,100.677l2.089-2.09v-4.351l-2.089-2.09H93.694v-5.766h21.021l2.089-2.09v-4.352l-2.089-2.09H92.311v22.825
			h23.119V100.677z"/>
		<path fill="#FFFFFF" d="M116.113,72.588l5.956,5.957v7.146l-3.217,3.217l3.931,3.93v7.146l-5.955,5.959H87.047V72.588H116.113
			 M91.811,101.177h23.825l2.382-2.383V94.03l-2.382-2.384H94.194v-4.766h20.728l2.382-2.383v-4.766l-2.382-2.383h-23.11
			L91.811,101.177 M116.527,71.588h-0.414H87.047h-1v1v33.354v1h1h29.781h0.414l0.293-0.293l5.955-5.955l0.293-0.293v-0.414V92.84
			v-0.414l-0.293-0.293l-3.224-3.225l2.51-2.51l0.293-0.293v-0.414v-7.146V78.13l-0.293-0.293l-5.956-5.957L116.527,71.588
			L116.527,71.588z M92.811,78.354h21.696l1.796,1.797v3.938l-1.796,1.795H94.194h-1v1v4.768v1h1h21.028l1.796,1.795v3.938
			l-1.796,1.798H92.811V78.354L92.811,78.354z"/>
	</g>
	<g>
		
			<linearGradient id="SVGID_4_" gradientUnits="userSpaceOnUse" x1="202.3091" y1="745.7568" x2="179.8115" y2="706.7899" gradientTransform="matrix(1 0 0 1 -45.0703 -639.1416)">
			<stop  offset="0" style="stop-color:#009FE3"/>
			<stop  offset="0.0376" style="stop-color:#0893D8"/>
			<stop  offset="0.1154" style="stop-color:#1480C6"/>
			<stop  offset="0.1955" style="stop-color:#1B75BB"/>
			<stop  offset="0.2809" style="stop-color:#1D71B8"/>
			<stop  offset="0.6685" style="stop-color:#36A9E1"/>
			<stop  offset="0.8876" style="stop-color:#1D71B8"/>
			<stop  offset="1" style="stop-color:#2D2E83"/>
		</linearGradient>
		<polygon fill="url(#SVGID_4_)" points="133.298,106.443 127.049,100.193 127.049,72.088 132.813,72.088 132.813,98.587 
			134.903,100.677 155.931,100.677 158.02,98.587 158.02,72.088 163.786,72.088 163.786,100.193 157.536,106.443 		"/>
		<path fill="#FFFFFF" d="M163.286,72.588v27.398l-5.957,5.955h-23.824l-5.954-5.955V72.588h4.765v26.207l2.385,2.383h21.439
			l2.383-2.383V72.588H163.286 M164.286,71.588h-1h-4.766h-1v1V98.38l-1.797,1.797H135.11l-1.797-1.797V72.588v-1h-1h-4.765h-1v1
			v27.398v0.414l0.293,0.293l5.956,5.955l0.293,0.293h0.414h23.824h0.414l0.293-0.293l5.955-5.955l0.293-0.293v-0.414V72.588v-1
			H164.286z"/>
	</g>
	<g>
		
			<linearGradient id="SVGID_5_" gradientUnits="userSpaceOnUse" x1="241.6675" y1="750.0254" x2="217.607" y2="708.3513" gradientTransform="matrix(1 0 0 1 -45.0703 -639.1416)">
			<stop  offset="0" style="stop-color:#009FE3"/>
			<stop  offset="0.0376" style="stop-color:#0893D8"/>
			<stop  offset="0.1154" style="stop-color:#1480C6"/>
			<stop  offset="0.1955" style="stop-color:#1B75BB"/>
			<stop  offset="0.2809" style="stop-color:#1D71B8"/>
			<stop  offset="0.6685" style="stop-color:#36A9E1"/>
			<stop  offset="0.8876" style="stop-color:#1D71B8"/>
			<stop  offset="1" style="stop-color:#2D2E83"/>
		</linearGradient>
		<polygon fill="url(#SVGID_5_)" points="198.522,106.443 198.522,96.621 196.433,94.531 174.698,94.531 174.698,88.766 
			196.433,88.766 198.522,86.675 198.522,79.943 196.433,77.854 173.315,77.854 173.315,106.443 167.551,106.443 167.551,72.088 
			198.04,72.088 204.288,78.337 204.288,88.281 200.92,91.648 204.288,95.016 204.288,106.443 		"/>
		<path fill="#FFFFFF" d="M197.833,72.588l5.955,5.957v9.529l-3.574,3.574l3.574,3.572v10.721h-4.767v-9.529l-2.382-2.383h-21.441
			v-4.766h21.442l2.382-2.384v-7.146l-2.382-2.383h-23.825v28.59h-4.765V72.588H197.833 M198.247,71.588h-0.414h-29.781h-1v1v33.354
			v1h1h4.765h1v-1v-27.59h22.411l1.796,1.797v6.319l-1.796,1.798h-21.029h-1v1v4.766v1h1h21.028l1.796,1.797v9.115v1h1h4.766h1v-1
			V95.223v-0.414l-0.293-0.293l-2.867-2.867l2.867-2.865l0.293-0.293v-0.414v-9.531V78.13l-0.293-0.293l-5.955-5.957L198.247,71.588
			L198.247,71.588z"/>
	</g>
	<g>
		
			<linearGradient id="SVGID_6_" gradientUnits="userSpaceOnUse" x1="282.1694" y1="750.0254" x2="259.6714" y2="711.0576" gradientTransform="matrix(1 0 0 1 -45.0703 -639.1416)">
			<stop  offset="0" style="stop-color:#009FE3"/>
			<stop  offset="0.0376" style="stop-color:#0893D8"/>
			<stop  offset="0.1154" style="stop-color:#1480C6"/>
			<stop  offset="0.1955" style="stop-color:#1B75BB"/>
			<stop  offset="0.2809" style="stop-color:#1D71B8"/>
			<stop  offset="0.6685" style="stop-color:#36A9E1"/>
			<stop  offset="0.8876" style="stop-color:#1D71B8"/>
			<stop  offset="1" style="stop-color:#2D2E83"/>
		</linearGradient>
		<polygon fill="url(#SVGID_6_)" points="239.024,106.443 239.024,79.943 236.935,77.854 215.907,77.854 213.819,79.943 
			213.819,106.443 208.053,106.443 208.053,78.337 214.302,72.088 238.542,72.088 244.79,78.337 244.79,106.443 		"/>
		<path fill="#FFFFFF" d="M238.334,72.588l5.955,5.957v27.396h-4.767V79.736l-2.382-2.383H215.7l-2.381,2.383v26.207h-4.768V78.544
			l5.956-5.957L238.334,72.588 M238.749,71.588h-0.414h-23.825h-0.414l-0.293,0.293l-5.956,5.957l-0.293,0.293v0.414v27.396v1h1
			h4.766h1v-1V80.15l1.797-1.797h20.612l1.796,1.797v25.793v1h1h4.766h1v-1V78.544V78.13l-0.293-0.293l-5.955-5.957L238.749,71.588
			L238.749,71.588z"/>
	</g>
</g>
<g>
	<g>
		<path fill="#009FE3" d="M58.379,126.312v-5.949c-0.344-0.211-0.688-0.416-1.038-0.613l-1.288-0.729
			c-0.452-0.239-0.897-0.496-1.328-0.762c-0.333-0.207-0.668-0.406-1.005-0.6c-0.797,0.457-1.585,0.906-2.365,1.348
			c-0.862,0.488-1.734,0.975-2.617,1.455l-0.245,0.135c0,0-1.931-1.104-2.791-1.59c-0.778-0.439-1.547-0.887-2.311-1.344
			l-2.354,1.354c-0.774,0.443-1.541,0.896-2.298,1.351v5.94l-0.245,0.146c-0.368,0.219-0.745,0.428-1.132,0.633l-1.844,0.959
			v-14.219l0.718,0.346c0.396,0.191,0.781,0.394,1.157,0.604c0.378,0.214,0.752,0.441,1.122,0.688l0.224,0.148v1.1
			c0.617-0.346,1.225-0.699,1.82-1.061l2.767-1.668l0.252,0.139c0.885,0.48,1.76,0.979,2.625,1.486
			c0.777,0.459,1.547,0.916,2.308,1.375c0.789-0.435,1.571-0.879,2.345-1.334c0.858-0.506,1.707-1.012,2.546-1.519l0.253-0.153
			l0.256,0.147c1.239,0.722,2.468,1.431,3.688,2.129c1.221,0.701,3.941,2.275,3.941,2.275v9.618L58.379,126.312z"/>
		<path fill="#FFFFFF" d="M53.66,114.564c1.24,0.721,2.47,1.43,3.689,2.129c1.221,0.701,2.45,1.41,3.69,2.131v4.74v3.721
			l-2.16-1.262v-3.238v-2.701c-0.427-0.268-0.856-0.521-1.29-0.77c-0.433-0.248-0.863-0.49-1.29-0.73
			c-0.453-0.24-0.89-0.49-1.31-0.75s-0.844-0.51-1.271-0.75c-0.88,0.508-1.75,1.004-2.609,1.49c-0.86,0.486-1.73,0.971-2.61,1.449
			c-0.84-0.479-1.69-0.963-2.55-1.449c-0.86-0.486-1.71-0.982-2.55-1.49c-0.88,0.508-1.75,1.008-2.61,1.5
			c-0.86,0.494-1.71,0.994-2.55,1.5v5.939c-0.36,0.213-0.73,0.42-1.11,0.621c-0.38,0.198-0.75,0.393-1.109,0.58v-12.601
			c0.387,0.187,0.763,0.383,1.13,0.59c0.366,0.207,0.729,0.431,1.09,0.67v1.681c0.88-0.48,1.74-0.974,2.58-1.48
			c0.84-0.506,1.68-1.014,2.52-1.52c0.88,0.479,1.75,0.973,2.61,1.479c0.859,0.506,1.71,1.013,2.55,1.521
			c0.88-0.48,1.75-0.974,2.61-1.48C51.969,115.578,52.82,115.07,53.66,114.564 M35.02,113.033v1.592v12.602v1.646l1.46-0.758
			c0.361-0.188,0.732-0.382,1.114-0.582c0.396-0.207,0.78-0.423,1.155-0.646l0.49-0.291v-0.57v-5.373
			c0.676-0.403,1.357-0.803,2.047-1.198c0.694-0.397,1.395-0.802,2.102-1.207c0.688,0.41,1.382,0.812,2.068,1.2
			c0.858,0.486,1.707,0.968,2.546,1.447l0.485,0.277l0.49-0.27c0.884-0.48,1.759-0.969,2.623-1.457
			c0.699-0.396,1.405-0.797,2.118-1.207c0.249,0.145,0.497,0.295,0.743,0.447c0.438,0.271,0.897,0.532,1.368,0.782
			c0.404,0.228,0.832,0.47,1.264,0.716c0.264,0.149,0.524,0.303,0.785,0.461v2.141v3.24v0.574l0.496,0.289l2.16,1.26l1.504,0.877
			v-1.74v-3.721v-4.738v-0.576l-0.498-0.29c-1.242-0.721-2.473-1.433-3.694-2.133c-1.219-0.699-2.447-1.408-3.686-2.127
			l-0.512-0.298l-0.508,0.308c-0.837,0.504-1.684,1.01-2.541,1.515c-0.68,0.401-1.377,0.799-2.079,1.188
			c-0.683-0.41-1.37-0.82-2.064-1.229c-0.869-0.512-1.756-1.016-2.64-1.496l-0.504-0.274l-0.491,0.297l-1.81,1.09l-0.711,0.431
			c-0.349,0.209-0.704,0.42-1.062,0.627v-0.506l-0.446-0.297c-0.378-0.253-0.766-0.49-1.152-0.709
			c-0.387-0.218-0.786-0.427-1.187-0.619L35.02,113.033L35.02,113.033z"/>
	</g>
	<g>
		<path fill="#009FE3" d="M70.849,129.527c-1.215-0.701-2.431-1.412-3.646-2.133l-0.245-0.146v-9.035l0.252-0.146
			c1.211-0.69,2.423-1.395,3.635-2.106c1.213-0.713,2.441-1.43,3.683-2.149l0.251-0.146l0.251,0.146
			c1.24,0.721,2.469,1.43,3.688,2.129c1.222,0.699,2.452,1.41,3.692,2.131l0.256,0.148l-0.007,0.297
			c-0.064,2.672-0.066,5.405-0.006,8.131l0.03,0.016l-0.022,0.301l0.011,0.439h-0.04c-0.037,0.697-0.027,1.383,0.026,2.039
			l0.073,0.895l-0.799-0.406c-0.677-0.346-1.35-0.713-2.003-1.1c-0.773,0.443-1.558,0.896-2.349,1.355
			c-0.862,0.5-1.712,0.989-2.554,1.473l-0.25,0.143C74.778,131.8,72.063,130.227,70.849,129.527z M70.12,125.423
			c0.705,0.427,1.417,0.847,2.137,1.257l2.529,1.442l0.01,0.01c0.059-0.03,0.11-0.055,0.161-0.073l1.24-0.736
			c0.202-0.119,0.404-0.236,0.608-0.354l-0.008-0.006l0.729-0.43c0.367-0.218,0.735-0.423,1.104-0.613
			c0.271-0.14,0.541-0.287,0.812-0.442v-4.992c0-0.105,0.007-0.24,0.021-0.406c0.002-0.027,0.004-0.051,0.004-0.072
			c-0.004-0.002-0.317-0.139-0.354-0.154c-0.785-0.469-1.542-0.906-2.297-1.33c-0.681-0.383-1.36-0.774-2.041-1.178
			c-0.755,0.434-1.521,0.877-2.291,1.332c-0.78,0.459-1.567,0.918-2.364,1.377V125.423z"/>
		<path fill="#FFFFFF" d="M74.78,114.244c1.24,0.721,2.47,1.43,3.689,2.131c1.221,0.699,2.45,1.41,3.69,2.129
			c-0.067,2.773-0.067,5.574,0,8.4c-0.067,0-0.117-0.014-0.15-0.039c-0.033-0.027-0.083-0.055-0.149-0.08
			c-0.308-0.188-0.62-0.367-0.94-0.541s-0.646-0.354-0.979-0.539v-5.221c0-0.094,0.006-0.213,0.02-0.359
			c0.013-0.146,0.006-0.268-0.02-0.359c0-0.026-0.027-0.061-0.08-0.102c-0.054-0.039-0.113-0.076-0.181-0.109
			c-0.066-0.033-0.134-0.062-0.199-0.09c-0.067-0.025-0.113-0.047-0.141-0.061c-0.76-0.453-1.52-0.894-2.28-1.32
			c-0.76-0.426-1.52-0.867-2.279-1.318c-0.84,0.479-1.69,0.974-2.55,1.479c-0.86,0.508-1.73,1.014-2.61,1.521v5.939
			c0.787,0.479,1.583,0.949,2.39,1.41c0.808,0.459,1.63,0.93,2.471,1.408c0.025,0.026,0.076,0.063,0.149,0.11
			c0.073,0.048,0.123,0.07,0.15,0.07c0.026,0,0.077-0.022,0.149-0.07c0.073-0.047,0.144-0.084,0.21-0.11
			c0.453-0.267,0.891-0.521,1.311-0.771c0.42-0.246,0.843-0.489,1.27-0.729c0.36,0.188,0.728,0.391,1.101,0.61
			s0.727,0.437,1.06,0.65c-0.84,0.479-1.689,0.969-2.55,1.469s-1.71,0.99-2.55,1.472c-1.24-0.722-2.467-1.431-3.681-2.132
			c-1.213-0.698-2.427-1.409-3.64-2.129v-8.461c1.213-0.692,2.427-1.396,3.64-2.108C72.313,115.682,73.54,114.964,74.78,114.244
			 M79.94,125.764c0.359,0.188,0.723,0.387,1.09,0.602c0.367,0.213,0.743,0.412,1.13,0.6c-0.067,0.867-0.067,1.707,0,2.52
			c-0.76-0.387-1.5-0.797-2.22-1.229c-0.721-0.435-1.44-0.862-2.16-1.289c0.359-0.213,0.72-0.414,1.08-0.6
			C79.219,126.177,79.58,125.979,79.94,125.764 M74.78,113.087l-0.502,0.293c-1.241,0.722-2.471,1.438-3.685,2.152
			c-1.21,0.711-2.42,1.411-3.629,2.104l-0.504,0.289v0.58v8.459v0.57l0.489,0.291c1.217,0.721,2.434,1.434,3.65,2.135
			c1.213,0.701,2.438,1.41,3.678,2.129l0.498,0.289l0.5-0.287c0.842-0.479,1.693-0.971,2.557-1.473
			c0.706-0.41,1.404-0.813,2.096-1.209c0.583,0.338,1.18,0.661,1.779,0.967l1.597,0.812l-0.146-1.785
			c-0.04-0.486-0.054-0.986-0.042-1.498h0.07l-0.022-0.928l0.048-0.617l-0.062-0.029c-0.055-2.615-0.05-5.236,0.012-7.803
			l0.015-0.59l-0.512-0.297c-1.242-0.722-2.473-1.433-3.695-2.134c-1.218-0.698-2.446-1.407-3.685-2.127L74.78,113.087
			L74.78,113.087z M70.62,120.341c0.712-0.411,1.418-0.823,2.118-1.235c0.684-0.402,1.36-0.797,2.033-1.185
			c0.6,0.354,1.202,0.701,1.799,1.035c0.754,0.424,1.514,0.862,2.257,1.308l0.029,0.018l0.029,0.016
			c0.016,0.008,0.034,0.018,0.059,0.027c-0.003,0.059-0.004,0.113-0.004,0.16v4.703c-0.18,0.1-0.359,0.196-0.54,0.291
			c-0.372,0.192-0.751,0.403-1.129,0.627l-1.455,0.858l0.003,0.002l-1.013,0.595l-2.303-1.312c-0.632-0.359-1.264-0.73-1.885-1.104
			L70.62,120.341L70.62,120.341z"/>
	</g>
	<g>
		<path fill="#009FE3" d="M87.94,126.964c0-0.217,0.003-0.483,0.01-0.801l0.02-0.979c0.007-0.336,0.011-0.662,0.011-0.979
			c0-0.297-0.013-0.553-0.037-0.764c-0.003-0.996,0.01-1.887,0.037-2.732c0.024-0.816,0.013-1.518-0.039-2.08l-0.05-0.545h0.147
			v-0.436l3.046,1.879c0,0-0.029,1.549-0.036,2.033c-0.007,0.483-0.01,0.938-0.01,1.362s0.003,0.853,0.01,1.281
			c0.007,0.432,0.037,1.803,0.037,1.803l-0.257,0.148c-0.342,0.196-0.68,0.399-1.015,0.61c-0.353,0.221-0.736,0.437-1.151,0.644
			l-0.724,0.362L87.94,126.964L87.94,126.964z"/>
		<path fill="#FFFFFF" d="M88.54,118.544c0.347,0.213,0.687,0.422,1.02,0.629s0.674,0.418,1.021,0.632
			c-0.014,0.68-0.023,1.264-0.03,1.75c-0.007,0.485-0.01,0.942-0.01,1.368c0,0.429,0.003,0.857,0.01,1.291
			c0.007,0.435,0.018,0.937,0.03,1.511c-0.347,0.198-0.69,0.405-1.03,0.618c-0.34,0.214-0.71,0.421-1.109,0.621
			c0-0.213,0.003-0.478,0.01-0.791c0.007-0.312,0.013-0.639,0.02-0.979c0.007-0.34,0.011-0.67,0.011-0.988
			c0-0.32-0.015-0.594-0.04-0.82c0-0.934,0.013-1.82,0.04-2.66c0.025-0.84,0.013-1.553-0.04-2.141c0.04,0,0.065-0.006,0.08-0.02
			C88.533,118.564,88.54,118.559,88.54,118.544 M87.54,116.755v0.83h-0.195l0.1,1.09c0.049,0.541,0.062,1.222,0.037,2.019
			c-0.027,0.842-0.041,1.746-0.041,2.69v0.058l0.007,0.059c0.021,0.189,0.033,0.428,0.033,0.705c0,0.312-0.004,0.637-0.011,0.969
			l-0.004,0.24l-0.015,0.738c-0.007,0.322-0.01,0.594-0.01,0.812v1.619l1.447-0.726c0.43-0.215,0.83-0.438,1.194-0.668
			c0.329-0.205,0.661-0.405,0.998-0.602l0.514-0.295l-0.014-0.594c-0.013-0.57-0.023-1.07-0.03-1.502
			c-0.007-0.428-0.01-0.854-0.01-1.273c0-0.422,0.003-0.875,0.01-1.355c0.007-0.485,0.018-1.065,0.03-1.743l0.011-0.574
			l-0.487-0.299c-0.347-0.213-0.685-0.42-1.016-0.627l-1.022-0.632L87.54,116.755L87.54,116.755z"/>
	</g>
	<g>
		<path fill="#009FE3" d="M109.52,126.251v-5.957c-0.125-0.078-0.254-0.147-0.385-0.213c-0.247-0.125-0.487-0.267-0.72-0.426
			c-0.604-0.339-1.248-0.71-1.892-1.093c-0.557-0.33-1.112-0.651-1.668-0.968c-0.792,0.435-1.577,0.882-2.354,1.339
			c-0.78,0.459-1.568,0.918-2.364,1.377v4.871c0,0.105,0.007,0.229,0.019,0.365c0.017,0.197,0.008,0.365-0.026,0.51
			c-0.05,0.283-0.319,0.418-0.488,0.502c-0.127,0.064-0.228,0.111-0.301,0.144c-0.266,0.187-0.536,0.354-0.808,0.506l-1.555,0.858
			V113.74l0.729,0.379c0.364,0.189,0.729,0.385,1.093,0.588c0.363,0.201,0.728,0.41,1.091,0.625l0.246,0.146v1.188
			c0.644-0.352,1.271-0.711,1.873-1.072c0.847-0.506,2.779-1.67,2.779-1.67l0.255,0.146c1.269,0.72,2.506,1.433,3.714,2.132
			l3.919,2.274v9.617L109.52,126.251z"/>
		<path fill="#FFFFFF" d="M104.799,114.503c1.268,0.722,2.503,1.431,3.71,2.131c1.207,0.699,2.431,1.41,3.67,2.13v8.461
			l-2.159-1.261v-5.94c-0.214-0.146-0.435-0.275-0.66-0.39c-0.227-0.114-0.447-0.243-0.66-0.391c-0.641-0.359-1.28-0.729-1.92-1.109
			c-0.641-0.381-1.28-0.75-1.92-1.11c-0.88,0.479-1.75,0.975-2.61,1.479c-0.86,0.508-1.729,1.015-2.61,1.521v5.16
			c0,0.121,0.007,0.258,0.021,0.409c0.013,0.154,0.006,0.277-0.021,0.371c0,0.027-0.073,0.076-0.22,0.15
			c-0.146,0.073-0.253,0.122-0.32,0.149c-0.267,0.187-0.536,0.355-0.81,0.51c-0.273,0.152-0.543,0.304-0.81,0.449v-6.479v-6.181
			c0.359,0.188,0.72,0.381,1.079,0.58c0.36,0.199,0.721,0.406,1.08,0.621v1.738c0.906-0.479,1.783-0.973,2.631-1.479
			C103.117,115.518,103.959,115.011,104.799,114.503 M96.48,112.917v1.646v6.181v6.479v1.689l1.48-0.812
			c0.27-0.147,0.542-0.301,0.818-0.455c0.271-0.151,0.544-0.321,0.809-0.504c0.074-0.033,0.168-0.078,0.28-0.135
			c0.188-0.094,0.665-0.332,0.756-0.859c0.042-0.188,0.053-0.399,0.032-0.639c-0.011-0.123-0.017-0.23-0.017-0.324v-4.582
			c0.712-0.412,1.418-0.824,2.118-1.235c0.685-0.404,1.388-0.806,2.096-1.197c0.472,0.271,0.944,0.545,1.417,0.826
			c0.634,0.375,1.269,0.741,1.901,1.1c0.237,0.16,0.486,0.308,0.741,0.437c0.036,0.018,0.072,0.035,0.107,0.055v5.381v0.574
			l0.495,0.289l2.16,1.26l1.504,0.877v-1.74v-8.459v-0.576l-0.498-0.289l-1.663-0.965l-2.007-1.166
			c-1.209-0.701-2.448-1.414-3.718-2.135l-0.509-0.289l-0.501,0.303c-0.839,0.507-1.681,1.013-2.527,1.519
			c-0.364,0.22-0.735,0.437-1.116,0.649v-0.051v-0.572l-0.49-0.288c-0.368-0.22-0.736-0.431-1.104-0.634
			c-0.367-0.205-0.736-0.401-1.104-0.594L96.48,112.917L96.48,112.917z"/>
	</g>
	<g>
		<path fill="#009FE3" d="M118.339,140.343c0-3.254,0.003-6.483,0.01-9.69c0.008-3.207,0.023-6.396,0.051-9.572
			c0-1.02-0.011-2.049-0.03-3.086c-0.021-1.043-0.03-2.033-0.03-2.971v-0.5l0.561-0.06h0.133l0.115,0.066
			c1.214,0.692,2.426,1.395,3.634,2.102c1.205,0.707,2.414,1.406,3.625,2.099l0.252,0.145v2.957l-0.293,0.293l-0.246,0.023h-0.275
			l-0.131-0.191c-0.789-0.439-1.594-0.896-2.414-1.367c-0.588-0.338-1.168-0.668-1.741-0.99v2.277c0,0,4.01,2.314,4.849,2.795
			l0.252,0.145v3.672l-0.748-0.428c-0.842-0.481-1.686-0.975-2.527-1.477c-0.598-0.355-1.206-0.707-1.824-1.051v13.648l-0.036,0.09
			c-0.102,0.25-0.344,0.391-0.517,0.475c-0.087,0.041-0.146,0.07-0.18,0.092c-0.332,0.189-0.609,0.348-0.9,0.514
			c-0.308,0.174-0.602,0.324-0.881,0.449l-0.706,0.318V140.343z"/>
		<path fill="#FFFFFF" d="M118.9,114.964c1.213,0.693,2.423,1.394,3.63,2.101c1.207,0.705,2.417,1.406,3.63,2.1v2.461
			c-0.015,0.016-0.028,0.021-0.039,0.021c-0.008,0-0.015-0.004-0.021-0.013c-0.014-0.02-0.034-0.043-0.062-0.069
			c-0.813-0.453-1.644-0.924-2.49-1.41s-1.677-0.957-2.49-1.41v3.42v2.521v13.799v0.601c-0.026,0.065-0.116,0.138-0.27,0.211
			c-0.154,0.072-0.244,0.123-0.271,0.149c-0.267,0.146-0.547,0.304-0.84,0.47c-0.293,0.168-0.572,0.312-0.84,0.43
			c0-3.252,0.003-6.481,0.01-9.688c0.008-3.207,0.023-6.396,0.051-9.57c0-1.025-0.011-2.061-0.03-3.1
			c-0.021-1.041-0.03-2.025-0.03-2.961C118.839,114.984,118.86,114.964,118.9,114.964 M121.059,122.166
			c0.881,0.506,1.74,1.002,2.58,1.49c0.841,0.486,1.681,0.969,2.521,1.449v2.52c-0.84-0.479-1.68-0.971-2.521-1.471
			c-0.84-0.5-1.699-0.988-2.58-1.469V122.166 M119.166,113.964H118.9c-0.595,0-1.061,0.466-1.061,1.06
			c0,0.938,0.01,1.934,0.03,2.979c0.02,1.033,0.03,2.062,0.03,3.08c-0.026,3.168-0.043,6.358-0.051,9.567
			c-0.007,3.207-0.01,6.438-0.01,9.691v1.549l1.411-0.637c0.294-0.133,0.604-0.291,0.923-0.473c0.29-0.164,0.565-0.318,0.828-0.463
			l0.129-0.07l0.019-0.02c0.021-0.01,0.045-0.021,0.071-0.035c0.147-0.07,0.583-0.279,0.769-0.736l0.073-0.182v-0.193v-0.602v-12.09
			c0.36,0.207,0.718,0.414,1.068,0.623c0.845,0.504,1.689,0.995,2.535,1.479l1.496,0.854v-1.725v-2.52v-0.58l-0.504-0.289
			c-0.838-0.479-1.676-0.961-2.515-1.445c-0.681-0.395-1.375-0.795-2.081-1.203v-1.131c0.327,0.186,0.658,0.375,0.991,0.564
			c0.786,0.453,1.559,0.891,2.315,1.312l0.205,0.301l0.548,0.014c0.278,0,0.542-0.112,0.746-0.315l0.293-0.293v-0.414v-2.461v-0.58
			l-0.504-0.287c-1.21-0.692-2.417-1.391-3.621-2.096c-1.209-0.707-2.423-1.41-3.639-2.104L119.166,113.964L119.166,113.964z"/>
	</g>
	<g>
		<path fill="#009FE3" d="M132.62,109.486l0.756,0.389c0.355,0.211,0.717,0.418,1.086,0.623c0.383,0.211,0.746,0.426,1.088,0.646
			l0.23,0.146v5.373c0.757-0.428,1.475-0.834,2.191-1.244c0.758-0.432,1.496-0.859,2.213-1.285l0.755-0.447v3.607l-0.228,0.148
			c-0.845,0.549-1.711,1.07-2.582,1.549c-0.774,0.428-1.56,0.867-2.352,1.322v5.924l-0.229,0.146
			c-0.342,0.22-0.705,0.435-1.088,0.646c-0.369,0.204-0.73,0.411-1.086,0.622l-0.757,0.449L132.62,109.486L132.62,109.486z"/>
		<path fill="#FFFFFF" d="M133.12,110.305c0.36,0.213,0.727,0.424,1.1,0.629c0.373,0.207,0.729,0.418,1.062,0.631v5.938
			c0.12-0.024,0.235-0.076,0.351-0.149c0.113-0.072,0.217-0.144,0.311-0.209c0.76-0.429,1.52-0.857,2.279-1.291
			c0.761-0.433,1.5-0.861,2.221-1.289v2.459c-0.84,0.547-1.689,1.059-2.551,1.531c-0.859,0.473-1.729,0.963-2.609,1.469v5.94
			c-0.333,0.213-0.688,0.422-1.061,0.629s-0.739,0.418-1.101,0.632v-16.859L133.12,110.305 M132.12,108.548v1.757v0.061v16.859
			v1.754l1.51-0.896c0.354-0.207,0.709-0.412,1.075-0.615c0.392-0.217,0.767-0.438,1.114-0.661l0.461-0.296v-0.547v-5.36
			c0.704-0.402,1.4-0.793,2.092-1.174c0.881-0.484,1.76-1.013,2.613-1.568l0.454-0.295v-0.543v-2.459v-1.756l-1.511,0.896
			c-0.715,0.424-1.449,0.852-2.205,1.281c-0.481,0.272-0.963,0.547-1.444,0.818v-4.24v-0.547l-0.461-0.295
			c-0.349-0.224-0.724-0.447-1.115-0.664c-0.364-0.201-0.723-0.406-1.073-0.615L132.12,108.548L132.12,108.548z"/>
	</g>
	<g>
		<path fill="#009FE3" d="M149.67,129.527c-1.216-0.701-2.432-1.412-3.646-2.133l-0.245-0.146v-9.035l0.252-0.146
			c1.211-0.69,2.423-1.395,3.637-2.106c1.213-0.712,2.439-1.43,3.682-2.149l0.25-0.146l0.252,0.146
			c1.24,0.721,2.469,1.43,3.688,2.129c1.221,0.699,2.452,1.41,3.692,2.131l0.256,0.148l-0.007,0.297
			c-0.064,2.672-0.066,5.405-0.006,8.131l0.031,0.016l-0.023,0.301l0.011,0.439h-0.04c-0.037,0.697-0.027,1.383,0.026,2.039
			l0.073,0.895l-0.799-0.406c-0.678-0.346-1.351-0.713-2.002-1.1c-0.775,0.443-1.56,0.896-2.351,1.355
			c-0.86,0.5-1.712,0.989-2.556,1.473l-0.25,0.143C153.596,131.8,150.881,130.227,149.67,129.527z M148.94,125.423
			c0.705,0.427,1.417,0.847,2.137,1.257l2.529,1.442l0.01,0.01c0.059-0.03,0.109-0.055,0.161-0.073l1.239-0.736
			c0.203-0.119,0.406-0.236,0.609-0.354l-0.009-0.006l0.729-0.43c0.367-0.218,0.736-0.423,1.104-0.613
			c0.27-0.14,0.541-0.287,0.811-0.442v-4.992c0-0.105,0.008-0.24,0.022-0.406c0.002-0.027,0.004-0.051,0.004-0.072
			c-0.004-0.002-0.317-0.139-0.354-0.154c-0.783-0.469-1.541-0.906-2.297-1.33c-0.68-0.383-1.358-0.774-2.041-1.178
			c-0.754,0.434-1.52,0.877-2.291,1.332c-0.778,0.459-1.565,0.918-2.362,1.377L148.94,125.423L148.94,125.423z"/>
		<path fill="#FFFFFF" d="M153.598,114.244c1.24,0.721,2.471,1.43,3.689,2.131c1.221,0.699,2.45,1.41,3.69,2.129
			c-0.067,2.773-0.067,5.574,0,8.4c-0.067,0-0.117-0.014-0.15-0.039c-0.032-0.027-0.083-0.055-0.149-0.08
			c-0.308-0.188-0.619-0.367-0.939-0.541s-0.646-0.354-0.98-0.539v-5.221c0-0.094,0.006-0.213,0.021-0.359
			c0.014-0.146,0.006-0.268-0.021-0.359c0-0.026-0.025-0.061-0.08-0.102c-0.053-0.039-0.111-0.076-0.18-0.109
			c-0.066-0.033-0.134-0.062-0.199-0.09c-0.066-0.025-0.112-0.047-0.141-0.061c-0.76-0.453-1.52-0.894-2.279-1.32
			c-0.761-0.426-1.521-0.867-2.281-1.318c-0.84,0.479-1.688,0.974-2.549,1.479c-0.859,0.508-1.729,1.014-2.609,1.521v5.939
			c0.785,0.479,1.583,0.949,2.39,1.41c0.808,0.459,1.632,0.93,2.472,1.408c0.024,0.026,0.076,0.063,0.148,0.11
			c0.073,0.048,0.123,0.07,0.148,0.07c0.027,0,0.078-0.022,0.15-0.07c0.073-0.047,0.143-0.084,0.211-0.11
			c0.452-0.267,0.889-0.521,1.311-0.771c0.42-0.246,0.843-0.489,1.271-0.729c0.358,0.188,0.727,0.391,1.1,0.61
			s0.727,0.437,1.06,0.65c-0.84,0.479-1.69,0.969-2.55,1.469s-1.71,0.99-2.551,1.472c-1.239-0.722-2.467-1.431-3.68-2.132
			c-1.213-0.698-2.428-1.409-3.641-2.129v-8.461c1.213-0.692,2.428-1.396,3.641-2.108S152.36,114.964,153.598,114.244
			 M158.758,125.764c0.36,0.188,0.725,0.387,1.09,0.602c0.367,0.213,0.744,0.412,1.132,0.6c-0.067,0.867-0.067,1.707,0,2.52
			c-0.761-0.387-1.5-0.797-2.222-1.229c-0.72-0.435-1.438-0.862-2.16-1.289c0.361-0.213,0.722-0.414,1.08-0.6
			C158.039,126.177,158.4,125.979,158.758,125.764 M153.598,113.087l-0.502,0.293c-1.24,0.722-2.469,1.438-3.685,2.152
			c-1.21,0.711-2.42,1.411-3.629,2.104l-0.504,0.289v0.58v8.459v0.57l0.487,0.291c1.219,0.721,2.436,1.434,3.652,2.135
			c1.211,0.701,2.438,1.41,3.676,2.129l0.498,0.289l0.5-0.287c0.844-0.479,1.694-0.971,2.559-1.473
			c0.706-0.41,1.402-0.813,2.097-1.209c0.582,0.338,1.179,0.661,1.778,0.967l1.597,0.812l-0.146-1.785
			c-0.04-0.486-0.055-0.986-0.043-1.498h0.07l-0.021-0.928l0.048-0.617l-0.062-0.029c-0.055-2.615-0.049-5.236,0.012-7.803
			l0.015-0.59l-0.512-0.297c-1.242-0.722-2.474-1.433-3.695-2.134c-1.218-0.698-2.446-1.407-3.685-2.127L153.598,113.087
			L153.598,113.087z M149.44,120.341c0.712-0.411,1.418-0.823,2.117-1.235c0.685-0.402,1.361-0.797,2.033-1.185
			c0.601,0.354,1.203,0.701,1.799,1.035c0.754,0.424,1.515,0.862,2.258,1.308l0.029,0.018l0.028,0.016
			c0.017,0.008,0.034,0.018,0.06,0.027c-0.004,0.059-0.004,0.113-0.004,0.16v4.703c-0.18,0.1-0.359,0.196-0.541,0.291
			c-0.371,0.192-0.75,0.403-1.129,0.627l-1.455,0.858l0.004,0.002l-1.012,0.595l-2.305-1.312c-0.632-0.359-1.264-0.73-1.885-1.104
			L149.44,120.341L149.44,120.341z"/>
	</g>
	<g>
		<path fill="#009FE3" d="M189.619,126.312v-5.949c-0.344-0.211-0.69-0.416-1.038-0.613l-1.287-0.729
			c-0.451-0.239-0.896-0.496-1.326-0.762c-0.334-0.207-0.67-0.406-1.006-0.6c-0.798,0.457-1.586,0.906-2.367,1.348
			c-0.86,0.488-1.732,0.975-2.615,1.455l-0.245,0.135c0,0-1.933-1.104-2.791-1.59c-0.778-0.439-1.547-0.887-2.312-1.344
			l-2.354,1.354c-0.773,0.443-1.541,0.896-2.298,1.351v5.94l-0.245,0.146c-0.368,0.219-0.745,0.428-1.133,0.633l-1.844,0.959
			v-14.219l0.717,0.346c0.396,0.191,0.783,0.394,1.158,0.604c0.377,0.214,0.752,0.441,1.123,0.688l0.224,0.148v1.1
			c0.616-0.346,1.225-0.699,1.819-1.061l2.768-1.668l0.252,0.139c0.885,0.48,1.76,0.979,2.625,1.486
			c0.775,0.459,1.547,0.916,2.309,1.375c0.789-0.435,1.57-0.879,2.344-1.334c0.858-0.506,1.707-1.012,2.547-1.519l0.253-0.153
			l0.256,0.149c1.237,0.72,2.469,1.429,3.688,2.127c1.219,0.701,3.938,2.275,3.938,2.275v9.618L189.619,126.312z"/>
		<path fill="#FFFFFF" d="M184.9,114.564c1.239,0.721,2.47,1.43,3.69,2.129c1.219,0.701,2.447,1.41,3.688,2.131v4.74v3.721
			l-2.16-1.262v-3.238v-2.701c-0.426-0.268-0.855-0.521-1.29-0.77c-0.433-0.248-0.862-0.49-1.29-0.73
			c-0.451-0.24-0.89-0.49-1.31-0.75c-0.423-0.26-0.845-0.51-1.271-0.75c-0.881,0.508-1.75,1.004-2.609,1.49
			c-0.86,0.486-1.73,0.971-2.61,1.449c-0.84-0.479-1.69-0.963-2.55-1.449c-0.86-0.486-1.71-0.982-2.551-1.49
			c-0.879,0.508-1.75,1.008-2.609,1.5c-0.859,0.494-1.71,0.994-2.55,1.5v5.939c-0.36,0.213-0.729,0.42-1.11,0.621
			c-0.38,0.198-0.75,0.393-1.109,0.58v-12.601c0.388,0.187,0.764,0.383,1.129,0.59c0.367,0.207,0.73,0.431,1.092,0.67v1.681
			c0.88-0.48,1.738-0.974,2.578-1.48c0.842-0.506,1.682-1.014,2.521-1.52c0.881,0.479,1.75,0.973,2.61,1.479
			c0.858,0.506,1.71,1.013,2.55,1.521c0.88-0.48,1.75-0.974,2.609-1.48C183.209,115.578,184.059,115.07,184.9,114.564
			 M166.258,113.033v1.592v12.602v1.646l1.461-0.758c0.361-0.188,0.732-0.382,1.115-0.582c0.396-0.207,0.779-0.423,1.154-0.646
			l0.49-0.291v-0.57v-5.373c0.676-0.403,1.357-0.803,2.047-1.198c0.693-0.397,1.395-0.802,2.102-1.207
			c0.688,0.41,1.381,0.812,2.068,1.2c0.857,0.486,1.707,0.968,2.546,1.447l0.485,0.277l0.49-0.27
			c0.883-0.48,1.758-0.969,2.623-1.457c0.699-0.396,1.404-0.797,2.119-1.207c0.248,0.146,0.494,0.295,0.741,0.447
			c0.438,0.27,0.896,0.532,1.367,0.782c0.403,0.228,0.833,0.47,1.265,0.716c0.264,0.149,0.523,0.303,0.784,0.459v2.143v3.238v0.574
			l0.496,0.291l2.16,1.26l1.504,0.877v-1.74v-3.721v-4.74v-0.576l-0.498-0.289c-1.239-0.721-2.476-1.432-3.692-2.131
			c-1.221-0.701-2.447-1.41-3.688-2.127l-0.514-0.299l-0.506,0.307c-0.838,0.506-1.685,1.01-2.541,1.516
			c-0.681,0.4-1.377,0.799-2.08,1.188c-0.683-0.41-1.371-0.818-2.063-1.228c-0.869-0.514-1.756-1.016-2.642-1.498l-0.504-0.274
			l-0.489,0.297l-1.81,1.092l-0.711,0.429c-0.35,0.211-0.705,0.42-1.062,0.629v-0.508l-0.446-0.297
			c-0.378-0.25-0.767-0.49-1.151-0.707c-0.388-0.22-0.787-0.429-1.188-0.621L166.258,113.033L166.258,113.033z"/>
	</g>
	<g>
		<path fill="#009FE3" d="M205.772,131.6c-1.215-0.693-2.428-1.396-3.645-2.103c-1.211-0.707-2.437-1.404-3.674-2.097l-0.256-0.145
			v-9.041l0.248-0.145c1.027-0.602,2.082-1.211,3.163-1.832s2.146-1.23,3.203-1.83l0.424-0.275c0.174-0.113,0.346-0.209,0.515-0.285
			l0.1-0.045l0.195-0.012c0.158,0,0.313,0.045,0.463,0.133c0.086,0.053,0.19,0.105,0.315,0.164c1.168,0.691,2.294,1.346,3.433,1.99
			c1.144,0.648,2.256,1.293,3.338,1.936l0.726,0.43l-0.726,0.431c-1.213,0.722-2.431,1.433-3.646,2.133
			c-1.213,0.699-3.941,2.283-3.941,2.283l-0.256-0.164c-0.328-0.211-0.666-0.418-1.015-0.621l-1.791-1.057l0.716-0.433
			c0.844-0.51,1.695-1.012,2.559-1.506c0.619-0.354,1.229-0.711,1.838-1.072c-0.248-0.146-0.496-0.287-0.748-0.426
			c-0.418-0.229-0.827-0.453-1.23-0.678c-0.794,0.436-1.578,0.883-2.355,1.34c-0.777,0.459-1.564,0.918-2.361,1.377v5.363
			l2.357,1.354c0.776,0.444,1.547,0.896,2.309,1.354c0.79-0.455,1.562-0.906,2.32-1.352c0.842-0.494,1.701-0.994,2.584-1.502
			l0.25-0.144l3.146,1.832l-0.729,0.435c-1.215,0.723-2.432,1.432-3.646,2.125c-1.214,0.694-2.441,1.389-3.684,2.084l-0.247,0.139
			L205.772,131.6z"/>
		<path fill="#FFFFFF" d="M206.045,114.292c0.066,0,0.135,0.021,0.205,0.062c0.1,0.061,0.223,0.125,0.368,0.19
			c1.121,0.666,2.25,1.322,3.392,1.97s2.25,1.291,3.33,1.93c-1.213,0.721-2.429,1.432-3.642,2.131s-2.438,1.41-3.681,2.131
			c-0.334-0.213-0.676-0.424-1.028-0.631c-0.354-0.207-0.711-0.416-1.069-0.631c0.84-0.506,1.688-1.006,2.549-1.5
			c0.86-0.492,1.711-0.992,2.552-1.5c-0.479-0.307-0.972-0.596-1.472-0.869s-0.987-0.543-1.47-0.811
			c-0.881,0.479-1.75,0.975-2.61,1.479c-0.858,0.508-1.729,1.014-2.608,1.521v5.94c0.881,0.506,1.75,1.006,2.608,1.5
			c0.86,0.491,1.711,0.991,2.552,1.5c0.881-0.508,1.739-1.009,2.579-1.5c0.841-0.494,1.699-0.994,2.58-1.5l2.16,1.26
			c-1.213,0.72-2.429,1.427-3.642,2.119s-2.438,1.387-3.681,2.08c-1.213-0.692-2.426-1.394-3.641-2.101
			c-1.214-0.707-2.438-1.405-3.681-2.1v-8.461c1.026-0.6,2.08-1.209,3.16-1.83c1.08-0.619,2.146-1.229,3.2-1.83
			c0.146-0.092,0.296-0.189,0.449-0.289c0.151-0.1,0.303-0.184,0.449-0.25C205.988,114.296,206.016,114.292,206.045,114.292
			 M206.045,113.292c-0.119,0-0.24,0.017-0.355,0.049l-0.074,0.021l-0.068,0.033c-0.193,0.088-0.391,0.195-0.582,0.322l-0.099,0.062
			l-0.34,0.219c-1.017,0.576-2.083,1.188-3.164,1.809c-1.082,0.621-2.138,1.232-3.166,1.834l-0.496,0.289v0.574v8.459v0.586
			l0.513,0.287c1.242,0.695,2.477,1.398,3.664,2.092c1.219,0.707,2.434,1.408,3.647,2.104l0.489,0.28l0.494-0.274
			c1.242-0.695,2.473-1.392,3.688-2.084c1.254-0.718,2.483-1.435,3.653-2.129l1.463-0.867l-1.469-0.856l-2.16-1.261l-0.502-0.291
			l-0.502,0.289c-0.883,0.509-1.743,1.011-2.588,1.504c-0.674,0.396-1.359,0.796-2.062,1.201c-0.688-0.41-1.38-0.815-2.063-1.207
			l-2.104-1.211v-4.783c0.713-0.411,1.419-0.823,2.118-1.237c0.705-0.414,1.41-0.816,2.1-1.197c0.323,0.178,0.65,0.357,0.982,0.539
			c-0.364,0.213-0.727,0.424-1.088,0.631c-0.866,0.498-1.723,1-2.568,1.51l-1.432,0.863l1.438,0.854
			c0.361,0.215,0.721,0.426,1.076,0.633c0.342,0.201,0.673,0.403,0.996,0.61l0.514,0.328l0.526-0.308
			c1.239-0.719,2.466-1.428,3.678-2.129c1.216-0.7,2.435-1.414,3.651-2.135l1.449-0.861l-1.451-0.858
			c-1.082-0.644-2.207-1.295-3.346-1.938c-1.113-0.631-2.248-1.291-3.373-1.959l-0.047-0.027l-0.053-0.023
			c-0.104-0.049-0.193-0.092-0.268-0.137C206.543,113.363,206.293,113.292,206.045,113.292L206.045,113.292z"/>
	</g>
</g>
</svg>
